<?xml version="1.0" standalone="no"?>
<!DOCTYPE svg PUBLIC "-//W3C//DTD SVG 20010904//EN"
 "http://www.w3.org/TR/2001/REC-SVG-20010904/DTD/svg10.dtd">
<svg version="1.0" xmlns="http://www.w3.org/2000/svg"
 width="1010.000000pt" height="580.000000pt" viewBox="0 0 1010.000000 580.000000"
 preserveAspectRatio="xMidYMid meet">

<g transform="translate(0.000000,580.000000) scale(0.100000,-0.100000)"
fill="#000000" stroke="none">
<path d="M6805 5413 c-313 -16 -548 -113 -736 -302 -206 -207 -311 -438 -344
-753 l-7 -68 304 0 305 0 12 86 c42 301 192 489 431 540 247 52 468 -44 562
-246 18 -38 37 -71 43 -72 5 -2 135 -2 287 0 l277 3 -5 32 c-57 314 -210 528
-469 657 -159 78 -302 113 -515 123 -47 2 -112 2 -145 0z"/>
<path d="M4775 5396 c-136 -32 -227 -79 -323 -169 -209 -196 -247 -497 -96
-749 21 -35 52 -81 70 -103 l33 -41 -52 -28 c-80 -45 -189 -122 -227 -161
l-34 -35 36 -38 c55 -56 96 -129 123 -215 22 -68 25 -97 25 -220 0 -116 -4
-158 -23 -227 -24 -92 -78 -196 -126 -247 l-31 -32 53 -44 c97 -83 238 -147
392 -178 87 -17 306 -18 400 -1 157 29 311 94 430 182 l58 43 36 -39 c20 -22
56 -63 81 -92 l46 -52 286 2 287 3 -40 45 c-22 25 -68 79 -102 120 -34 41
-102 122 -152 178 -118 136 -113 127 -91 151 21 23 36 27 36 10 0 -6 30 -57
66 -113 125 -190 279 -314 489 -394 155 -59 445 -79 620 -43 172 35 332 133
429 262 25 33 47 55 50 50 3 -5 9 -68 12 -140 l7 -131 204 0 203 0 0 665 0
665 -530 0 -530 0 0 -210 0 -210 265 0 265 0 0 -22 c-1 -49 -31 -164 -60 -225
-35 -77 -124 -169 -193 -201 -152 -71 -360 -68 -517 7 -121 57 -226 198 -272
364 -22 80 -48 256 -48 330 l0 47 -322 -2 c-314 -3 -323 -4 -326 -23 -16 -102
-133 -355 -164 -355 -4 0 -51 52 -105 116 -54 64 -135 160 -180 213 -46 53
-82 101 -82 106 0 6 32 30 71 55 97 62 227 201 271 289 48 95 60 163 55 296
-4 89 -10 122 -31 173 -70 170 -217 301 -395 353 -89 26 -266 34 -347 15z
m239 -420 c168 -99 128 -330 -76 -441 l-51 -28 -53 59 c-29 32 -67 84 -86 114
-29 48 -33 62 -33 125 0 61 4 77 27 113 38 57 87 81 167 82 50 0 73 -5 105
-24z m-238 -1028 c22 -24 94 -106 159 -183 65 -77 147 -173 182 -213 35 -40
63 -76 63 -80 0 -9 -68 -52 -138 -86 -169 -85 -354 -68 -469 42 -70 67 -98
129 -98 217 0 62 4 77 37 135 20 36 54 81 75 101 43 40 132 109 142 109 4 0
25 -19 47 -42z"/>
<path d="M2160 4156 l0 -1206 608 0 c642 0 759 6 902 48 265 79 432 238 485
466 19 81 19 246 0 321 -16 60 -54 153 -74 177 -79 101 -188 188 -286 228 -30
12 -55 25 -55 29 0 4 17 13 38 20 56 21 132 73 178 123 109 118 159 290 135
464 -39 277 -223 443 -567 510 -77 15 -173 18 -726 21 l-638 4 0 -1205z m1195
769 c71 -27 136 -95 159 -169 37 -118 3 -248 -82 -313 -75 -57 -115 -63 -414
-63 l-268 0 0 278 c0 153 3 282 7 286 5 4 129 6 278 4 231 -4 277 -7 320 -23z
m70 -953 c247 -114 241 -492 -9 -579 -45 -16 -89 -18 -356 -18 l-305 0 -3 313
-2 314 312 -4 c302 -3 315 -4 363 -26z"/>
<path d="M3427 2605 c-80 -28 -113 -86 -105 -183 5 -51 9 -59 50 -97 31 -28
73 -50 137 -74 122 -45 150 -85 95 -136 -45 -42 -124 -31 -205 27 -13 9 -25 4
-63 -27 l-46 -39 26 -27 c56 -58 181 -89 277 -69 101 21 161 90 162 185 0 99
-37 138 -185 194 -98 37 -120 54 -120 91 0 68 109 79 191 19 13 -10 24 -7 57
17 23 16 42 33 42 37 0 17 -66 67 -109 82 -55 18 -153 19 -204 0z"/>
<path d="M7035 2602 c-145 -50 -202 -151 -193 -339 9 -188 103 -285 278 -286
108 0 171 31 231 115 l20 27 -56 17 c-56 16 -57 16 -77 -6 -41 -44 -130 -54
-185 -20 -54 32 -78 91 -78 190 0 132 44 197 141 208 54 6 96 -11 130 -51 l26
-31 44 24 c24 14 44 26 44 28 0 2 -6 15 -14 30 -51 97 -185 138 -311 94z"/>
<path d="M2170 2295 l0 -316 63 3 62 3 3 313 2 312 -65 0 -65 0 0 -315z"/>
<path d="M2550 2295 l0 -315 60 0 60 0 2 215 3 214 143 -215 144 -215 61 3 62
3 3 313 2 312 -60 0 -60 0 -2 -212 -3 -213 -140 210 -140 210 -68 3 -67 3 0
-316z"/>
<path d="M3962 2373 c3 -223 4 -241 25 -279 44 -83 112 -118 228 -119 128 0
219 59 244 160 6 25 11 135 11 259 l0 216 -65 0 -65 0 0 -214 c0 -118 -4 -226
-10 -240 -21 -55 -119 -84 -180 -53 -53 26 -60 62 -60 295 l0 212 -66 0 -66 0
4 -237z"/>
<path d="M4712 2298 l3 -313 58 -3 57 -3 0 116 0 116 47 -3 48 -3 47 -85 c26
-47 53 -97 62 -112 14 -26 19 -28 81 -28 36 0 65 3 65 6 0 4 -32 60 -71 126
l-71 120 41 35 c48 40 71 88 71 146 0 94 -48 164 -127 186 -21 6 -100 11 -176
11 l-137 0 2 -312z m284 179 c65 -76 -1 -172 -114 -165 l-47 3 -3 99 -3 98 72
-4 c63 -3 74 -7 95 -31z"/>
<path d="M5551 2588 c-5 -13 -50 -138 -100 -278 -50 -140 -96 -265 -101 -278
-20 -47 -14 -53 47 -50 l58 3 29 78 30 78 115 -3 116 -3 26 -75 25 -75 62 -3
c34 -2 62 1 62 6 0 6 -22 68 -48 138 -27 71 -77 209 -113 306 l-64 178 -68 0
c-61 0 -68 -2 -76 -22z m120 -226 l36 -117 -75 -3 c-41 -2 -76 -1 -78 0 -1 2
14 58 34 125 20 67 39 119 42 117 2 -3 21 -58 41 -122z"/>
<path d="M6100 2295 l0 -315 60 0 60 0 2 214 3 215 143 -215 144 -214 64 0 64
0 0 315 0 315 -60 0 -60 0 -2 -211 -3 -212 -140 209 -140 209 -67 3 -68 3 0
-316z"/>
<path d="M7542 2298 l3 -313 200 0 200 0 3 53 3 52 -145 0 -146 0 0 80 0 80
120 0 120 0 0 55 0 55 -120 0 -120 0 1 70 2 69 131 3 131 3 3 53 3 52 -196 0
-195 0 2 -312z"/>
<path d="M3619 1741 c-83 -52 -121 -150 -100 -252 28 -136 134 -198 292 -170
38 7 76 19 84 27 11 11 14 39 12 112 l-2 97 -87 3 -88 3 0 -36 c0 -35 0 -35
45 -35 l45 0 0 -49 0 -49 -39 -7 c-58 -10 -116 10 -143 48 -20 27 -23 44 -23
115 l0 84 37 34 c48 44 101 47 146 9 30 -25 31 -25 66 -8 42 20 43 23 14 50
-42 38 -85 53 -151 53 -52 0 -71 -5 -108 -29z"/>
<path d="M4220 1545 l0 -225 40 0 39 0 3 83 c3 81 3 82 30 85 24 3 31 -5 74
-82 l48 -86 49 0 49 0 -23 38 c-13 20 -36 57 -51 81 -15 25 -28 49 -28 54 0 5
13 21 29 36 52 48 54 149 4 195 -34 31 -93 46 -187 46 l-76 0 0 -225z m167
144 c15 -5 31 -16 35 -22 13 -20 9 -75 -7 -90 -16 -17 -89 -32 -105 -22 -11 7
-14 128 -3 138 10 10 48 8 80 -4z"/>
<path d="M4940 1755 c-72 -33 -108 -90 -117 -189 -9 -104 34 -194 112 -234 36
-18 110 -24 156 -12 62 17 96 44 125 103 23 45 26 60 22 132 -5 93 -22 131
-81 179 -34 27 -47 31 -110 33 -49 2 -83 -2 -107 -12z m163 -82 c65 -58 62
-220 -4 -267 -34 -23 -100 -21 -134 6 -80 62 -69 235 17 273 40 18 93 13 121
-12z"/>
<path d="M5552 1591 l3 -179 31 -39 c73 -90 244 -79 304 19 18 30 20 51 20
206 l0 172 -39 0 -40 0 -3 -166 -3 -166 -28 -24 c-45 -39 -118 -30 -142 17
-11 21 -15 67 -15 184 l0 155 -46 0 -46 0 4 -179z"/>
<path d="M6248 1764 c-5 -4 -8 -106 -8 -226 l0 -218 45 0 45 0 0 80 0 80 48 0
c62 1 127 30 146 69 9 16 16 50 16 75 0 102 -44 135 -188 143 -53 3 -100 2
-104 -3z m166 -78 c24 -10 35 -22 39 -42 11 -59 -24 -94 -94 -94 l-29 0 0 75
c0 74 0 75 25 75 14 0 41 -6 59 -14z"/>
<path d="M2170 1525 l0 -25 525 0 525 0 0 25 0 25 -525 0 -525 0 0 -25z"/>
<path d="M6840 1525 l0 -25 560 0 560 0 0 25 0 25 -560 0 -560 0 0 -25z"/>
<path d="M2215 995 c-30 -29 -33 -74 -7 -103 9 -11 38 -28 64 -37 59 -22 75
-39 58 -60 -14 -17 -81 -20 -97 -4 -12 12 -53 -8 -53 -26 0 -17 37 -35 84 -41
59 -9 111 17 126 61 17 52 -2 79 -77 111 -52 22 -63 31 -61 48 2 16 11 22 36
24 18 2 39 -2 47 -8 15 -12 55 2 55 20 0 18 -59 40 -105 40 -35 0 -52 -6 -70
-25z"/>
<path d="M2560 875 l0 -145 95 0 c95 0 95 0 95 25 0 24 -2 25 -65 25 l-65 0 0
35 0 35 50 0 c47 0 50 2 50 25 0 23 -3 25 -50 25 l-50 0 0 35 0 35 60 0 c57 0
60 1 60 25 0 25 -1 25 -90 25 l-90 0 0 -145z"/>
<path d="M2968 1005 c-87 -48 -93 -203 -9 -261 33 -24 119 -29 164 -11 l37 16
0 65 0 66 -60 0 c-53 0 -60 -2 -60 -20 0 -16 7 -20 30 -20 28 0 30 -3 30 -35
0 -34 -1 -35 -41 -35 -59 0 -99 42 -99 103 0 62 29 97 80 97 21 0 45 -7 54
-15 12 -12 20 -14 36 -5 27 14 25 24 -6 49 -32 25 -115 28 -156 6z"/>
<path d="M3332 901 c2 -100 6 -122 22 -140 50 -55 160 -48 196 12 17 26 20 51
20 140 l0 107 -30 0 -30 0 0 -101 c0 -122 -7 -139 -60 -139 -53 0 -60 17 -60
139 l0 101 -31 0 -31 0 4 -119z"/>
<path d="M3750 875 l0 -145 25 0 c23 0 25 3 25 50 0 46 2 50 23 50 18 0 30
-12 51 -50 23 -42 32 -50 57 -50 16 0 29 2 29 5 0 2 -14 27 -30 55 l-31 52 26
20 c20 15 25 28 25 61 -1 72 -37 97 -141 97 l-59 0 0 -145z m124 89 c10 -4 16
-18 16 -39 0 -36 -13 -45 -61 -45 -28 0 -29 1 -25 43 2 23 5 43 5 45 2 4 50 2
65 -4z"/>
<path d="M4190 1007 c-67 -34 -94 -153 -50 -225 38 -61 134 -79 194 -36 77 57
74 205 -6 254 -37 23 -101 26 -138 7z m115 -62 c30 -29 34 -89 10 -135 -13
-26 -21 -30 -55 -30 -54 0 -80 29 -80 91 0 89 70 130 125 74z"/>
<path d="M4576 999 c-20 -16 -26 -29 -26 -58 0 -45 19 -65 83 -87 57 -19 75
-38 57 -59 -15 -18 -59 -20 -94 -4 -20 9 -29 9 -41 -1 -24 -20 -18 -36 19 -54
74 -35 168 -7 181 53 11 51 -1 68 -76 103 -56 26 -69 36 -67 53 4 24 46 32 78
15 14 -8 26 -8 40 0 28 15 25 27 -10 45 -43 22 -112 19 -144 -6z"/>
<path d="M5153 928 c-17 -51 -41 -117 -52 -146 l-21 -53 32 3 c27 2 34 9 42
36 9 33 10 33 65 30 53 -3 56 -4 65 -35 7 -27 14 -33 37 -33 16 0 29 3 29 8 0
4 -23 69 -51 145 -51 136 -52 137 -83 137 -31 0 -32 -2 -63 -92z m81 -5 c3
-16 8 -38 12 -50 6 -21 3 -23 -29 -23 l-35 0 16 50 c18 57 27 62 36 23z"/>
<path d="M5670 920 c0 -125 14 -164 66 -186 50 -21 114 -11 145 22 22 24 24
35 27 146 l4 119 -29 -3 -28 -3 -5 -108 c-5 -118 -10 -127 -67 -127 -45 0 -53
21 -53 139 l0 101 -30 0 -30 0 0 -100z"/>
<path d="M6040 875 l0 -145 30 0 30 0 0 96 0 97 63 -97 c57 -89 64 -96 95 -96
l32 0 0 145 0 145 -30 0 -29 0 -3 -96 -3 -96 -62 96 c-56 86 -66 96 -93 96
l-30 0 0 -145z"/>
<path d="M6690 998 c-19 -13 -41 -36 -48 -52 -18 -37 -17 -118 3 -155 39 -76
149 -94 210 -34 l26 27 -22 8 c-15 6 -34 3 -56 -7 -65 -31 -113 8 -113 91 0
56 30 94 75 94 18 0 41 -7 49 -16 17 -17 47 -16 53 2 2 6 -5 21 -15 34 -29 36
-115 40 -162 8z"/>
<path d="M6987 1013 c-4 -3 -7 -69 -7 -145 l0 -138 95 0 c95 0 95 0 95 25 0
24 -2 25 -65 25 l-65 0 0 120 c0 119 0 120 -23 120 -13 0 -27 -3 -30 -7z"/>
<path d="M7260 875 l0 -145 30 0 30 0 0 145 0 145 -30 0 -30 0 0 -145z"/>
<path d="M7493 1000 c-43 -26 -63 -68 -63 -132 0 -88 41 -136 121 -145 48 -5
112 22 117 50 5 24 -33 30 -63 11 -33 -22 -85 -9 -102 26 -20 39 -16 103 8
134 24 30 78 36 103 10 20 -19 50 -15 54 8 5 25 -54 58 -103 58 -22 0 -54 -9
-72 -20z"/>
<path d="M7780 876 l0 -146 30 0 c30 0 30 1 30 54 0 30 5 58 10 61 6 3 27 -21
48 -54 34 -57 40 -61 74 -61 l38 0 -43 61 c-23 33 -47 68 -54 77 -10 14 -5 27
33 76 24 33 44 63 44 68 0 4 -13 8 -28 8 -23 0 -36 -10 -66 -55 -58 -84 -63
-85 -62 -12 1 61 0 62 -26 65 l-28 3 0 -145z"/>
</g>
</svg>
